<?xml version="1.0" encoding="UTF-8" standalone="no"?><svg xmlns="http://www.w3.org/2000/svg" xmlns:xlink="http://www.w3.org/1999/xlink" contentStyleType="text/css" height="887px" preserveAspectRatio="none" style="width:1255px;height:887px;background:#FFFFFF;" version="1.1" viewBox="0 0 1255 887" width="1255px" zoomAndPan="magnify"><defs/><g><!--MD5=[4f1f3706c1a355a8488e154afcaed5df]
class Location--><g id="elem_Location"><rect codeLine="1" fill="#F1F1F1" height="65.6094" id="Location" rx="2.5" ry="2.5" style="stroke:#181818;stroke-width:0.5;" width="102" x="530" y="7"/><ellipse cx="552.2" cy="23" fill="#ADD1B2" rx="11" ry="11" style="stroke:#181818;stroke-width:1.0;"/><path d="M554.9656,18.875 Q555.1219,18.6563 555.3094,18.5469 Q555.4969,18.4375 555.7156,18.4375 Q556.0906,18.4375 556.325,18.7031 Q556.5594,18.9531 556.5594,19.5625 L556.5594,21.0156 Q556.5594,21.625 556.325,21.8906 Q556.0906,22.1563 555.7156,22.1563 Q555.3719,22.1563 555.1688,21.9531 Q554.9656,21.7656 554.8563,21.25 Q554.8094,20.8906 554.6219,20.7031 Q554.2938,20.3281 553.6844,20.1094 Q553.075,19.8906 552.45,19.8906 Q551.6844,19.8906 551.0438,20.2188 Q550.4188,20.5469 549.9188,21.2969 Q549.4344,22.0469 549.4344,23.0781 L549.4344,24.1719 Q549.4344,25.4063 550.325,26.2344 Q551.2156,27.0469 552.8094,27.0469 Q553.7469,27.0469 554.4031,26.7969 Q554.7938,26.6406 555.2156,26.2031 Q555.4813,25.9375 555.6219,25.8594 Q555.7781,25.7813 555.9813,25.7813 Q556.3094,25.7813 556.5594,26.0469 Q556.825,26.2969 556.825,26.6406 Q556.825,26.9844 556.4813,27.3906 Q555.9813,27.9688 555.1844,28.2969 Q554.1063,28.75 552.8094,28.75 Q551.2938,28.75 550.0906,28.125 Q549.1063,27.625 548.4188,26.5625 Q547.7313,25.4844 547.7313,24.2031 L547.7313,23.0469 Q547.7313,21.7188 548.3406,20.5781 Q548.9656,19.4219 550.0594,18.8125 Q551.1531,18.1875 552.3875,18.1875 Q553.1219,18.1875 553.7625,18.3594 Q554.4188,18.5156 554.9656,18.875 Z " fill="#000000"/><text fill="#000000" font-family="sans-serif" font-size="14" lengthAdjust="spacing" textLength="54" x="567.8" y="28.7285">Location</text><line style="stroke:#181818;stroke-width:0.5;" x1="531" x2="631" y1="39" y2="39"/><rect fill="none" height="6" style="stroke:#C82930;stroke-width:1.0;" width="6" x="538" y="50.3047"/><text fill="#000000" font-family="sans-serif" font-size="14" lengthAdjust="spacing" textLength="76" x="550" y="57.5332">name:String</text><line style="stroke:#181818;stroke-width:0.5;" x1="531" x2="631" y1="64.6094" y2="64.6094"/></g><!--MD5=[a64a835c3d62471a77f615251fdde58a]
class Position--><g id="elem_Position"><rect codeLine="4" fill="#F1F1F1" height="65.6094" id="Position" rx="2.5" ry="2.5" style="stroke:#181818;stroke-width:0.5;" width="106" x="667" y="7"/><ellipse cx="692.8" cy="23" fill="#ADD1B2" rx="11" ry="11" style="stroke:#181818;stroke-width:1.0;"/><path d="M695.5656,18.875 Q695.7219,18.6563 695.9094,18.5469 Q696.0969,18.4375 696.3156,18.4375 Q696.6906,18.4375 696.925,18.7031 Q697.1594,18.9531 697.1594,19.5625 L697.1594,21.0156 Q697.1594,21.625 696.925,21.8906 Q696.6906,22.1563 696.3156,22.1563 Q695.9719,22.1563 695.7688,21.9531 Q695.5656,21.7656 695.4563,21.25 Q695.4094,20.8906 695.2219,20.7031 Q694.8938,20.3281 694.2844,20.1094 Q693.675,19.8906 693.05,19.8906 Q692.2844,19.8906 691.6438,20.2188 Q691.0188,20.5469 690.5188,21.2969 Q690.0344,22.0469 690.0344,23.0781 L690.0344,24.1719 Q690.0344,25.4063 690.925,26.2344 Q691.8156,27.0469 693.4094,27.0469 Q694.3469,27.0469 695.0031,26.7969 Q695.3938,26.6406 695.8156,26.2031 Q696.0813,25.9375 696.2219,25.8594 Q696.3781,25.7813 696.5813,25.7813 Q696.9094,25.7813 697.1594,26.0469 Q697.425,26.2969 697.425,26.6406 Q697.425,26.9844 697.0813,27.3906 Q696.5813,27.9688 695.7844,28.2969 Q694.7063,28.75 693.4094,28.75 Q691.8938,28.75 690.6906,28.125 Q689.7063,27.625 689.0188,26.5625 Q688.3313,25.4844 688.3313,24.2031 L688.3313,23.0469 Q688.3313,21.7188 688.9406,20.5781 Q689.5656,19.4219 690.6594,18.8125 Q691.7531,18.1875 692.9875,18.1875 Q693.7219,18.1875 694.3625,18.3594 Q695.0188,18.5156 695.5656,18.875 Z " fill="#000000"/><text fill="#000000" font-family="sans-serif" font-size="14" lengthAdjust="spacing" textLength="50" x="709.2" y="28.7285">Position</text><line style="stroke:#181818;stroke-width:0.5;" x1="668" x2="772" y1="39" y2="39"/><rect fill="none" height="6" style="stroke:#C82930;stroke-width:1.0;" width="6" x="675" y="50.3047"/><text fill="#000000" font-family="sans-serif" font-size="14" lengthAdjust="spacing" textLength="80" x="687" y="57.5332">name: String</text><line style="stroke:#181818;stroke-width:0.5;" x1="668" x2="772" y1="64.6094" y2="64.6094"/></g><!--MD5=[232882a74bb3d7ca169cfb1ce7c7ca46]
class Designation--><g id="elem_Designation"><rect codeLine="7" fill="#F1F1F1" height="83.2188" id="Designation" rx="2.5" ry="2.5" style="stroke:#181818;stroke-width:0.5;" width="122" x="589" y="151"/><ellipse cx="610.75" cy="167" fill="#ADD1B2" rx="11" ry="11" style="stroke:#181818;stroke-width:1.0;"/><path d="M613.5156,162.875 Q613.6719,162.6563 613.8594,162.5469 Q614.0469,162.4375 614.2656,162.4375 Q614.6406,162.4375 614.875,162.7031 Q615.1094,162.9531 615.1094,163.5625 L615.1094,165.0156 Q615.1094,165.625 614.875,165.8906 Q614.6406,166.1563 614.2656,166.1563 Q613.9219,166.1563 613.7188,165.9531 Q613.5156,165.7656 613.4063,165.25 Q613.3594,164.8906 613.1719,164.7031 Q612.8438,164.3281 612.2344,164.1094 Q611.625,163.8906 611,163.8906 Q610.2344,163.8906 609.5938,164.2188 Q608.9688,164.5469 608.4688,165.2969 Q607.9844,166.0469 607.9844,167.0781 L607.9844,168.1719 Q607.9844,169.4063 608.875,170.2344 Q609.7656,171.0469 611.3594,171.0469 Q612.2969,171.0469 612.9531,170.7969 Q613.3438,170.6406 613.7656,170.2031 Q614.0313,169.9375 614.1719,169.8594 Q614.3281,169.7813 614.5313,169.7813 Q614.8594,169.7813 615.1094,170.0469 Q615.375,170.2969 615.375,170.6406 Q615.375,170.9844 615.0313,171.3906 Q614.5313,171.9688 613.7344,172.2969 Q612.6563,172.75 611.3594,172.75 Q609.8438,172.75 608.6406,172.125 Q607.6563,171.625 606.9688,170.5625 Q606.2813,169.4844 606.2813,168.2031 L606.2813,167.0469 Q606.2813,165.7188 606.8906,164.5781 Q607.5156,163.4219 608.6094,162.8125 Q609.7031,162.1875 610.9375,162.1875 Q611.6719,162.1875 612.3125,162.3594 Q612.9688,162.5156 613.5156,162.875 Z " fill="#000000"/><text fill="#000000" font-family="sans-serif" font-size="14" lengthAdjust="spacing" textLength="75" x="626.25" y="172.7285">Designation</text><line style="stroke:#181818;stroke-width:0.5;" x1="590" x2="710" y1="183" y2="183"/><rect fill="none" height="6" style="stroke:#C82930;stroke-width:1.0;" width="6" x="597" y="194.3047"/><text fill="#000000" font-family="sans-serif" font-size="14" lengthAdjust="spacing" textLength="96" x="609" y="201.5332">startDate: Date</text><rect fill="none" height="6" style="stroke:#C82930;stroke-width:1.0;" width="6" x="597" y="211.9141"/><text fill="#000000" font-family="sans-serif" font-size="14" lengthAdjust="spacing" textLength="92" x="609" y="219.1426">endDate: Date</text><line style="stroke:#181818;stroke-width:0.5;" x1="590" x2="710" y1="226.2188" y2="226.2188"/></g><!--MD5=[7421f545a0d8420c5bec41e74b387d9c]
class Employee--><g id="elem_Employee"><rect codeLine="11" fill="#F1F1F1" height="65.6094" id="Employee" rx="2.5" ry="2.5" style="stroke:#181818;stroke-width:0.5;" width="106" x="687" y="320.5"/><ellipse cx="707.4" cy="336.5" fill="#ADD1B2" rx="11" ry="11" style="stroke:#181818;stroke-width:1.0;"/><path d="M710.1656,332.375 Q710.3219,332.1563 710.5094,332.0469 Q710.6969,331.9375 710.9156,331.9375 Q711.2906,331.9375 711.525,332.2031 Q711.7594,332.4531 711.7594,333.0625 L711.7594,334.5156 Q711.7594,335.125 711.525,335.3906 Q711.2906,335.6563 710.9156,335.6563 Q710.5719,335.6563 710.3688,335.4531 Q710.1656,335.2656 710.0563,334.75 Q710.0094,334.3906 709.8219,334.2031 Q709.4938,333.8281 708.8844,333.6094 Q708.275,333.3906 707.65,333.3906 Q706.8844,333.3906 706.2438,333.7188 Q705.6188,334.0469 705.1188,334.7969 Q704.6344,335.5469 704.6344,336.5781 L704.6344,337.6719 Q704.6344,338.9063 705.525,339.7344 Q706.4156,340.5469 708.0094,340.5469 Q708.9469,340.5469 709.6031,340.2969 Q709.9938,340.1406 710.4156,339.7031 Q710.6813,339.4375 710.8219,339.3594 Q710.9781,339.2813 711.1813,339.2813 Q711.5094,339.2813 711.7594,339.5469 Q712.025,339.7969 712.025,340.1406 Q712.025,340.4844 711.6813,340.8906 Q711.1813,341.4688 710.3844,341.7969 Q709.3063,342.25 708.0094,342.25 Q706.4938,342.25 705.2906,341.625 Q704.3063,341.125 703.6188,340.0625 Q702.9313,338.9844 702.9313,337.7031 L702.9313,336.5469 Q702.9313,335.2188 703.5406,334.0781 Q704.1656,332.9219 705.2594,332.3125 Q706.3531,331.6875 707.5875,331.6875 Q708.3219,331.6875 708.9625,331.8594 Q709.6188,332.0156 710.1656,332.375 Z " fill="#000000"/><text fill="#000000" font-family="sans-serif" font-size="14" lengthAdjust="spacing" textLength="62" x="722.6" y="342.2285">Employee</text><line style="stroke:#181818;stroke-width:0.5;" x1="688" x2="792" y1="352.5" y2="352.5"/><rect fill="none" height="6" style="stroke:#C82930;stroke-width:1.0;" width="6" x="695" y="363.8047"/><text fill="#000000" font-family="sans-serif" font-size="14" lengthAdjust="spacing" textLength="80" x="707" y="371.0332">name: String</text><line style="stroke:#181818;stroke-width:0.5;" x1="688" x2="792" y1="378.1094" y2="378.1094"/></g><!--MD5=[0851f84a889f989e7bb0bebc385d0f09]
class Request--><g id="elem_Request"><rect codeLine="14" fill="#F1F1F1" height="136.0469" id="Request" rx="2.5" ry="2.5" style="stroke:#181818;stroke-width:0.5;" width="131" x="674.5" y="473"/><ellipse cx="710.2" cy="489" fill="#ADD1B2" rx="11" ry="11" style="stroke:#181818;stroke-width:1.0;"/><path d="M712.9656,484.875 Q713.1219,484.6563 713.3094,484.5469 Q713.4969,484.4375 713.7156,484.4375 Q714.0906,484.4375 714.325,484.7031 Q714.5594,484.9531 714.5594,485.5625 L714.5594,487.0156 Q714.5594,487.625 714.325,487.8906 Q714.0906,488.1563 713.7156,488.1563 Q713.3719,488.1563 713.1688,487.9531 Q712.9656,487.7656 712.8563,487.25 Q712.8094,486.8906 712.6219,486.7031 Q712.2938,486.3281 711.6844,486.1094 Q711.075,485.8906 710.45,485.8906 Q709.6844,485.8906 709.0438,486.2188 Q708.4188,486.5469 707.9188,487.2969 Q707.4344,488.0469 707.4344,489.0781 L707.4344,490.1719 Q707.4344,491.4063 708.325,492.2344 Q709.2156,493.0469 710.8094,493.0469 Q711.7469,493.0469 712.4031,492.7969 Q712.7938,492.6406 713.2156,492.2031 Q713.4813,491.9375 713.6219,491.8594 Q713.7781,491.7813 713.9813,491.7813 Q714.3094,491.7813 714.5594,492.0469 Q714.825,492.2969 714.825,492.6406 Q714.825,492.9844 714.4813,493.3906 Q713.9813,493.9688 713.1844,494.2969 Q712.1063,494.75 710.8094,494.75 Q709.2938,494.75 708.0906,494.125 Q707.1063,493.625 706.4188,492.5625 Q705.7313,491.4844 705.7313,490.2031 L705.7313,489.0469 Q705.7313,487.7188 706.3406,486.5781 Q706.9656,485.4219 708.0594,484.8125 Q709.1531,484.1875 710.3875,484.1875 Q711.1219,484.1875 711.7625,484.3594 Q712.4188,484.5156 712.9656,484.875 Z " fill="#000000"/><text fill="#000000" font-family="sans-serif" font-size="14" lengthAdjust="spacing" textLength="53" x="728.8" y="494.7285">Request</text><line style="stroke:#181818;stroke-width:0.5;" x1="675.5" x2="804.5" y1="505" y2="505"/><rect fill="none" height="6" style="stroke:#C82930;stroke-width:1.0;" width="6" x="682.5" y="516.3047"/><text fill="#000000" font-family="sans-serif" font-size="14" lengthAdjust="spacing" textLength="63" x="694.5" y="523.5332">title:String</text><rect fill="none" height="6" style="stroke:#C82930;stroke-width:1.0;" width="6" x="682.5" y="533.9141"/><text fill="#000000" font-family="sans-serif" font-size="14" lengthAdjust="spacing" textLength="105" x="694.5" y="541.1426">comments:String</text><rect fill="none" height="6" style="stroke:#C82930;stroke-width:1.0;" width="6" x="682.5" y="551.5234"/><text fill="#000000" font-family="sans-serif" font-size="14" lengthAdjust="spacing" textLength="59" x="694.5" y="558.752">hours: int</text><rect fill="none" height="6" style="stroke:#C82930;stroke-width:1.0;" width="6" x="682.5" y="569.1328"/><text fill="#000000" font-family="sans-serif" font-size="14" lengthAdjust="spacing" textLength="73" x="694.5" y="576.3613">dates: Date</text><line style="stroke:#181818;stroke-width:0.5;" x1="675.5" x2="804.5" y1="583.4375" y2="583.4375"/><ellipse cx="685.5" cy="597.7422" fill="#84BE84" rx="3" ry="3" style="stroke:#038048;stroke-width:1.0;"/><text fill="#000000" font-family="sans-serif" font-size="14" lengthAdjust="spacing" textLength="59" x="694.5" y="601.9707">validate()</text></g><!--MD5=[c433c0453beae252ec142f87216236a3]
class Grant--><g id="elem_Grant"><rect codeLine="21" fill="#F1F1F1" height="118.4375" id="Grant" rx="2.5" ry="2.5" style="stroke:#181818;stroke-width:0.5;" width="109" x="840.5" y="482"/><ellipse cx="873.95" cy="498" fill="#ADD1B2" rx="11" ry="11" style="stroke:#181818;stroke-width:1.0;"/><path d="M876.7156,493.875 Q876.8719,493.6563 877.0594,493.5469 Q877.2469,493.4375 877.4656,493.4375 Q877.8406,493.4375 878.075,493.7031 Q878.3094,493.9531 878.3094,494.5625 L878.3094,496.0156 Q878.3094,496.625 878.075,496.8906 Q877.8406,497.1563 877.4656,497.1563 Q877.1219,497.1563 876.9188,496.9531 Q876.7156,496.7656 876.6063,496.25 Q876.5594,495.8906 876.3719,495.7031 Q876.0438,495.3281 875.4344,495.1094 Q874.825,494.8906 874.2,494.8906 Q873.4344,494.8906 872.7938,495.2188 Q872.1688,495.5469 871.6688,496.2969 Q871.1844,497.0469 871.1844,498.0781 L871.1844,499.1719 Q871.1844,500.4063 872.075,501.2344 Q872.9656,502.0469 874.5594,502.0469 Q875.4969,502.0469 876.1531,501.7969 Q876.5438,501.6406 876.9656,501.2031 Q877.2313,500.9375 877.3719,500.8594 Q877.5281,500.7813 877.7313,500.7813 Q878.0594,500.7813 878.3094,501.0469 Q878.575,501.2969 878.575,501.6406 Q878.575,501.9844 878.2313,502.3906 Q877.7313,502.9688 876.9344,503.2969 Q875.8563,503.75 874.5594,503.75 Q873.0438,503.75 871.8406,503.125 Q870.8563,502.625 870.1688,501.5625 Q869.4813,500.4844 869.4813,499.2031 L869.4813,498.0469 Q869.4813,496.7188 870.0906,495.5781 Q870.7156,494.4219 871.8094,493.8125 Q872.9031,493.1875 874.1375,493.1875 Q874.8719,493.1875 875.5125,493.3594 Q876.1688,493.5156 876.7156,493.875 Z " fill="#000000"/><text fill="#000000" font-family="sans-serif" font-size="14" lengthAdjust="spacing" textLength="36" x="892.05" y="503.7285">Grant</text><line style="stroke:#181818;stroke-width:0.5;" x1="841.5" x2="948.5" y1="514" y2="514"/><rect fill="none" height="6" style="stroke:#C82930;stroke-width:1.0;" width="6" x="848.5" y="525.3047"/><text fill="#000000" font-family="sans-serif" font-size="14" lengthAdjust="spacing" textLength="59" x="860.5" y="532.5332">hours: int</text><rect fill="none" height="6" style="stroke:#C82930;stroke-width:1.0;" width="6" x="848.5" y="542.9141"/><text fill="#000000" font-family="sans-serif" font-size="14" lengthAdjust="spacing" textLength="83" x="860.5" y="550.1426">expires: Date</text><rect fill="none" height="6" style="stroke:#C82930;stroke-width:1.0;" width="6" x="848.5" y="560.5234"/><text fill="#000000" font-family="sans-serif" font-size="14" lengthAdjust="spacing" textLength="75" x="860.5" y="567.752">active: Date</text><line style="stroke:#181818;stroke-width:0.5;" x1="841.5" x2="948.5" y1="574.8281" y2="574.8281"/><ellipse cx="851.5" cy="589.1328" fill="#84BE84" rx="3" ry="3" style="stroke:#038048;stroke-width:1.0;"/><text fill="#000000" font-family="sans-serif" font-size="14" lengthAdjust="spacing" textLength="58" x="860.5" y="593.3613">request()</text></g><!--MD5=[a96594a83e2ecdc78cbf17c2ddf01934]
class Category--><g id="elem_Category"><rect codeLine="27" fill="#F1F1F1" height="83.2188" id="Category" rx="2.5" ry="2.5" style="stroke:#181818;stroke-width:0.5;" width="140" x="847" y="312"/><ellipse cx="884.5" cy="328" fill="#ADD1B2" rx="11" ry="11" style="stroke:#181818;stroke-width:1.0;"/><path d="M887.2656,323.875 Q887.4219,323.6563 887.6094,323.5469 Q887.7969,323.4375 888.0156,323.4375 Q888.3906,323.4375 888.625,323.7031 Q888.8594,323.9531 888.8594,324.5625 L888.8594,326.0156 Q888.8594,326.625 888.625,326.8906 Q888.3906,327.1563 888.0156,327.1563 Q887.6719,327.1563 887.4688,326.9531 Q887.2656,326.7656 887.1563,326.25 Q887.1094,325.8906 886.9219,325.7031 Q886.5938,325.3281 885.9844,325.1094 Q885.375,324.8906 884.75,324.8906 Q883.9844,324.8906 883.3438,325.2188 Q882.7188,325.5469 882.2188,326.2969 Q881.7344,327.0469 881.7344,328.0781 L881.7344,329.1719 Q881.7344,330.4063 882.625,331.2344 Q883.5156,332.0469 885.1094,332.0469 Q886.0469,332.0469 886.7031,331.7969 Q887.0938,331.6406 887.5156,331.2031 Q887.7813,330.9375 887.9219,330.8594 Q888.0781,330.7813 888.2813,330.7813 Q888.6094,330.7813 888.8594,331.0469 Q889.125,331.2969 889.125,331.6406 Q889.125,331.9844 888.7813,332.3906 Q888.2813,332.9688 887.4844,333.2969 Q886.4063,333.75 885.1094,333.75 Q883.5938,333.75 882.3906,333.125 Q881.4063,332.625 880.7188,331.5625 Q880.0313,330.4844 880.0313,329.2031 L880.0313,328.0469 Q880.0313,326.7188 880.6406,325.5781 Q881.2656,324.4219 882.3594,323.8125 Q883.4531,323.1875 884.6875,323.1875 Q885.4219,323.1875 886.0625,323.3594 Q886.7188,323.5156 887.2656,323.875 Z " fill="#000000"/><text fill="#000000" font-family="sans-serif" font-size="14" lengthAdjust="spacing" textLength="58" x="903.5" y="333.7285">Category</text><line style="stroke:#181818;stroke-width:0.5;" x1="848" x2="986" y1="344" y2="344"/><rect fill="none" height="6" style="stroke:#C82930;stroke-width:1.0;" width="6" x="855" y="355.3047"/><text fill="#000000" font-family="sans-serif" font-size="14" lengthAdjust="spacing" textLength="80" x="867" y="362.5332">name: String</text><rect fill="none" height="6" style="stroke:#C82930;stroke-width:1.0;" width="6" x="855" y="372.9141"/><text fill="#000000" font-family="sans-serif" font-size="14" lengthAdjust="spacing" textLength="114" x="867" y="380.1426">description: String</text><line style="stroke:#181818;stroke-width:0.5;" x1="848" x2="986" y1="387.2188" y2="387.2188"/></g><!--MD5=[25e5bc2c4c214c4945313ac31f752e0b]
class Restriction--><g id="elem_Restriction"><rect codeLine="31" fill="#F1F1F1" height="100.8281" id="Restriction" rx="2.5" ry="2.5" style="stroke:#181818;stroke-width:0.5;" width="140" x="571" y="670"/><ellipse cx="604.45" cy="686" fill="#A9DCDF" rx="11" ry="11" style="stroke:#181818;stroke-width:1.0;"/><path d="M606.6375,687.7656 L602.4969,687.7656 L602.075,688.7969 L602.4969,688.7969 Q603.1063,688.7969 603.3719,689.0313 Q603.6375,689.2656 603.6375,689.6563 Q603.6375,690.0313 603.3719,690.2656 Q603.1063,690.5 602.4969,690.5 L600.2,690.5 Q599.5906,690.5 599.3406,690.2656 Q599.075,690.0313 599.075,689.6406 Q599.075,689.2656 599.3563,689.0313 Q599.6219,688.7813 600.2469,688.7969 L602.9188,682.1406 L601.8094,682.1406 Q601.2,682.1406 600.9344,681.9063 Q600.6688,681.6719 600.6688,681.2813 Q600.6688,680.9063 600.9344,680.6719 Q601.2,680.4375 601.8094,680.4375 L605.4813,680.4375 L608.8719,688.7969 Q609.4656,688.7969 609.6531,688.9375 Q610.0438,689.2031 610.0438,689.6563 Q610.0438,690.0313 609.7781,690.2656 Q609.5281,690.5 608.9188,690.5 L606.6219,690.5 Q606.0125,690.5 605.7469,690.2656 Q605.4813,690.0313 605.4813,689.6406 Q605.4813,689.2656 605.7469,689.0313 Q606.0125,688.7969 606.6219,688.7969 L607.0438,688.7969 L606.6375,687.7656 Z M605.9188,686.0625 L604.5594,682.6875 L603.1844,686.0625 L605.9188,686.0625 Z " fill="#000000"/><text fill="#000000" font-family="sans-serif" font-size="14" font-style="italic" lengthAdjust="spacing" textLength="67" x="622.55" y="691.7285">Restriction</text><line style="stroke:#181818;stroke-width:0.5;" x1="572" x2="710" y1="702" y2="702"/><rect fill="none" height="6" style="stroke:#C82930;stroke-width:1.0;" width="6" x="579" y="713.3047"/><text fill="#000000" font-family="sans-serif" font-size="14" lengthAdjust="spacing" textLength="80" x="591" y="720.5332">name: String</text><rect fill="none" height="6" style="stroke:#C82930;stroke-width:1.0;" width="6" x="579" y="730.9141"/><text fill="#000000" font-family="sans-serif" font-size="14" lengthAdjust="spacing" textLength="114" x="591" y="738.1426">description: String</text><line style="stroke:#181818;stroke-width:0.5;" x1="572" x2="710" y1="745.2188" y2="745.2188"/><ellipse cx="582" cy="759.5234" fill="#84BE84" rx="3" ry="3" style="stroke:#038048;stroke-width:1.0;"/><text fill="#000000" font-family="sans-serif" font-size="14" lengthAdjust="spacing" textLength="59" x="591" y="763.752">validate()</text></g><!--MD5=[2f321c0923de3e29dd84b8326b897a4d]
class DateExclusionRestriction--><g id="elem_DateExclusionRestriction"><rect codeLine="50" fill="#F1F1F1" height="48" id="DateExclusionRestriction" rx="2.5" ry="2.5" style="stroke:#181818;stroke-width:0.5;" width="188" x="7" y="832"/><ellipse cx="22" cy="848" fill="#ADD1B2" rx="11" ry="11" style="stroke:#181818;stroke-width:1.0;"/><path d="M24.7656,843.875 Q24.9219,843.6563 25.1094,843.5469 Q25.2969,843.4375 25.5156,843.4375 Q25.8906,843.4375 26.125,843.7031 Q26.3594,843.9531 26.3594,844.5625 L26.3594,846.0156 Q26.3594,846.625 26.125,846.8906 Q25.8906,847.1563 25.5156,847.1563 Q25.1719,847.1563 24.9688,846.9531 Q24.7656,846.7656 24.6563,846.25 Q24.6094,845.8906 24.4219,845.7031 Q24.0938,845.3281 23.4844,845.1094 Q22.875,844.8906 22.25,844.8906 Q21.4844,844.8906 20.8438,845.2188 Q20.2188,845.5469 19.7188,846.2969 Q19.2344,847.0469 19.2344,848.0781 L19.2344,849.1719 Q19.2344,850.4063 20.125,851.2344 Q21.0156,852.0469 22.6094,852.0469 Q23.5469,852.0469 24.2031,851.7969 Q24.5938,851.6406 25.0156,851.2031 Q25.2813,850.9375 25.4219,850.8594 Q25.5781,850.7813 25.7813,850.7813 Q26.1094,850.7813 26.3594,851.0469 Q26.625,851.2969 26.625,851.6406 Q26.625,851.9844 26.2813,852.3906 Q25.7813,852.9688 24.9844,853.2969 Q23.9063,853.75 22.6094,853.75 Q21.0938,853.75 19.8906,853.125 Q18.9063,852.625 18.2188,851.5625 Q17.5313,850.4844 17.5313,849.2031 L17.5313,848.0469 Q17.5313,846.7188 18.1406,845.5781 Q18.7656,844.4219 19.8594,843.8125 Q20.9531,843.1875 22.1875,843.1875 Q22.9219,843.1875 23.5625,843.3594 Q24.2188,843.5156 24.7656,843.875 Z " fill="#000000"/><text fill="#000000" font-family="sans-serif" font-size="14" lengthAdjust="spacing" textLength="156" x="36" y="853.7285">DateExclusionRestriction</text><line style="stroke:#181818;stroke-width:0.5;" x1="8" x2="194" y1="864" y2="864"/><line style="stroke:#181818;stroke-width:0.5;" x1="8" x2="194" y1="872" y2="872"/></g><!--MD5=[05b583e6fe977f2f42a21961dddce5d4]
class AdjacentDayRestriction--><g id="elem_AdjacentDayRestriction"><rect codeLine="51" fill="#F1F1F1" height="48" id="AdjacentDayRestriction" rx="2.5" ry="2.5" style="stroke:#181818;stroke-width:0.5;" width="179" x="230.5" y="832"/><ellipse cx="245.5" cy="848" fill="#ADD1B2" rx="11" ry="11" style="stroke:#181818;stroke-width:1.0;"/><path d="M248.2656,843.875 Q248.4219,843.6563 248.6094,843.5469 Q248.7969,843.4375 249.0156,843.4375 Q249.3906,843.4375 249.625,843.7031 Q249.8594,843.9531 249.8594,844.5625 L249.8594,846.0156 Q249.8594,846.625 249.625,846.8906 Q249.3906,847.1563 249.0156,847.1563 Q248.6719,847.1563 248.4688,846.9531 Q248.2656,846.7656 248.1563,846.25 Q248.1094,845.8906 247.9219,845.7031 Q247.5938,845.3281 246.9844,845.1094 Q246.375,844.8906 245.75,844.8906 Q244.9844,844.8906 244.3438,845.2188 Q243.7188,845.5469 243.2188,846.2969 Q242.7344,847.0469 242.7344,848.0781 L242.7344,849.1719 Q242.7344,850.4063 243.625,851.2344 Q244.5156,852.0469 246.1094,852.0469 Q247.0469,852.0469 247.7031,851.7969 Q248.0938,851.6406 248.5156,851.2031 Q248.7813,850.9375 248.9219,850.8594 Q249.0781,850.7813 249.2813,850.7813 Q249.6094,850.7813 249.8594,851.0469 Q250.125,851.2969 250.125,851.6406 Q250.125,851.9844 249.7813,852.3906 Q249.2813,852.9688 248.4844,853.2969 Q247.4063,853.75 246.1094,853.75 Q244.5938,853.75 243.3906,853.125 Q242.4063,852.625 241.7188,851.5625 Q241.0313,850.4844 241.0313,849.2031 L241.0313,848.0469 Q241.0313,846.7188 241.6406,845.5781 Q242.2656,844.4219 243.3594,843.8125 Q244.4531,843.1875 245.6875,843.1875 Q246.4219,843.1875 247.0625,843.3594 Q247.7188,843.5156 248.2656,843.875 Z " fill="#000000"/><text fill="#000000" font-family="sans-serif" font-size="14" lengthAdjust="spacing" textLength="147" x="259.5" y="853.7285">AdjacentDayRestriction</text><line style="stroke:#181818;stroke-width:0.5;" x1="231.5" x2="408.5" y1="864" y2="864"/><line style="stroke:#181818;stroke-width:0.5;" x1="231.5" x2="408.5" y1="872" y2="872"/></g><!--MD5=[d80a4ab2e0c84ad37fad05fd4af9b8eb]
class DayofWeekRestriction--><g id="elem_DayofWeekRestriction"><rect codeLine="52" fill="#F1F1F1" height="48" id="DayofWeekRestriction" rx="2.5" ry="2.5" style="stroke:#181818;stroke-width:0.5;" width="172" x="445" y="832"/><ellipse cx="460" cy="848" fill="#ADD1B2" rx="11" ry="11" style="stroke:#181818;stroke-width:1.0;"/><path d="M462.7656,843.875 Q462.9219,843.6563 463.1094,843.5469 Q463.2969,843.4375 463.5156,843.4375 Q463.8906,843.4375 464.125,843.7031 Q464.3594,843.9531 464.3594,844.5625 L464.3594,846.0156 Q464.3594,846.625 464.125,846.8906 Q463.8906,847.1563 463.5156,847.1563 Q463.1719,847.1563 462.9688,846.9531 Q462.7656,846.7656 462.6563,846.25 Q462.6094,845.8906 462.4219,845.7031 Q462.0938,845.3281 461.4844,845.1094 Q460.875,844.8906 460.25,844.8906 Q459.4844,844.8906 458.8438,845.2188 Q458.2188,845.5469 457.7188,846.2969 Q457.2344,847.0469 457.2344,848.0781 L457.2344,849.1719 Q457.2344,850.4063 458.125,851.2344 Q459.0156,852.0469 460.6094,852.0469 Q461.5469,852.0469 462.2031,851.7969 Q462.5938,851.6406 463.0156,851.2031 Q463.2813,850.9375 463.4219,850.8594 Q463.5781,850.7813 463.7813,850.7813 Q464.1094,850.7813 464.3594,851.0469 Q464.625,851.2969 464.625,851.6406 Q464.625,851.9844 464.2813,852.3906 Q463.7813,852.9688 462.9844,853.2969 Q461.9063,853.75 460.6094,853.75 Q459.0938,853.75 457.8906,853.125 Q456.9063,852.625 456.2188,851.5625 Q455.5313,850.4844 455.5313,849.2031 L455.5313,848.0469 Q455.5313,846.7188 456.1406,845.5781 Q456.7656,844.4219 457.8594,843.8125 Q458.9531,843.1875 460.1875,843.1875 Q460.9219,843.1875 461.5625,843.3594 Q462.2188,843.5156 462.7656,843.875 Z " fill="#000000"/><text fill="#000000" font-family="sans-serif" font-size="14" lengthAdjust="spacing" textLength="140" x="474" y="853.7285">DayofWeekRestriction</text><line style="stroke:#181818;stroke-width:0.5;" x1="446" x2="616" y1="864" y2="864"/><line style="stroke:#181818;stroke-width:0.5;" x1="446" x2="616" y1="872" y2="872"/></g><!--MD5=[9e353f957d1e9d3c12f5dd4c4ea951f7]
class ConsecutiveDayRestricion--><g id="elem_ConsecutiveDayRestricion"><rect codeLine="53" fill="#F1F1F1" height="48" id="ConsecutiveDayRestricion" rx="2.5" ry="2.5" style="stroke:#181818;stroke-width:0.5;" width="198" x="652" y="832"/><ellipse cx="667" cy="848" fill="#ADD1B2" rx="11" ry="11" style="stroke:#181818;stroke-width:1.0;"/><path d="M669.7656,843.875 Q669.9219,843.6563 670.1094,843.5469 Q670.2969,843.4375 670.5156,843.4375 Q670.8906,843.4375 671.125,843.7031 Q671.3594,843.9531 671.3594,844.5625 L671.3594,846.0156 Q671.3594,846.625 671.125,846.8906 Q670.8906,847.1563 670.5156,847.1563 Q670.1719,847.1563 669.9688,846.9531 Q669.7656,846.7656 669.6563,846.25 Q669.6094,845.8906 669.4219,845.7031 Q669.0938,845.3281 668.4844,845.1094 Q667.875,844.8906 667.25,844.8906 Q666.4844,844.8906 665.8438,845.2188 Q665.2188,845.5469 664.7188,846.2969 Q664.2344,847.0469 664.2344,848.0781 L664.2344,849.1719 Q664.2344,850.4063 665.125,851.2344 Q666.0156,852.0469 667.6094,852.0469 Q668.5469,852.0469 669.2031,851.7969 Q669.5938,851.6406 670.0156,851.2031 Q670.2813,850.9375 670.4219,850.8594 Q670.5781,850.7813 670.7813,850.7813 Q671.1094,850.7813 671.3594,851.0469 Q671.625,851.2969 671.625,851.6406 Q671.625,851.9844 671.2813,852.3906 Q670.7813,852.9688 669.9844,853.2969 Q668.9063,853.75 667.6094,853.75 Q666.0938,853.75 664.8906,853.125 Q663.9063,852.625 663.2188,851.5625 Q662.5313,850.4844 662.5313,849.2031 L662.5313,848.0469 Q662.5313,846.7188 663.1406,845.5781 Q663.7656,844.4219 664.8594,843.8125 Q665.9531,843.1875 667.1875,843.1875 Q667.9219,843.1875 668.5625,843.3594 Q669.2188,843.5156 669.7656,843.875 Z " fill="#000000"/><text fill="#000000" font-family="sans-serif" font-size="14" lengthAdjust="spacing" textLength="166" x="681" y="853.7285">ConsecutiveDayRestricion</text><line style="stroke:#181818;stroke-width:0.5;" x1="653" x2="849" y1="864" y2="864"/><line style="stroke:#181818;stroke-width:0.5;" x1="653" x2="849" y1="872" y2="872"/></g><!--MD5=[7500a45d580022fea3644c3d64498530]
class CoworkerRestriction--><g id="elem_CoworkerRestriction"><rect codeLine="54" fill="#F1F1F1" height="48" id="CoworkerRestriction" rx="2.5" ry="2.5" style="stroke:#181818;stroke-width:0.5;" width="159" x="885.5" y="832"/><ellipse cx="900.5" cy="848" fill="#ADD1B2" rx="11" ry="11" style="stroke:#181818;stroke-width:1.0;"/><path d="M903.2656,843.875 Q903.4219,843.6563 903.6094,843.5469 Q903.7969,843.4375 904.0156,843.4375 Q904.3906,843.4375 904.625,843.7031 Q904.8594,843.9531 904.8594,844.5625 L904.8594,846.0156 Q904.8594,846.625 904.625,846.8906 Q904.3906,847.1563 904.0156,847.1563 Q903.6719,847.1563 903.4688,846.9531 Q903.2656,846.7656 903.1563,846.25 Q903.1094,845.8906 902.9219,845.7031 Q902.5938,845.3281 901.9844,845.1094 Q901.375,844.8906 900.75,844.8906 Q899.9844,844.8906 899.3438,845.2188 Q898.7188,845.5469 898.2188,846.2969 Q897.7344,847.0469 897.7344,848.0781 L897.7344,849.1719 Q897.7344,850.4063 898.625,851.2344 Q899.5156,852.0469 901.1094,852.0469 Q902.0469,852.0469 902.7031,851.7969 Q903.0938,851.6406 903.5156,851.2031 Q903.7813,850.9375 903.9219,850.8594 Q904.0781,850.7813 904.2813,850.7813 Q904.6094,850.7813 904.8594,851.0469 Q905.125,851.2969 905.125,851.6406 Q905.125,851.9844 904.7813,852.3906 Q904.2813,852.9688 903.4844,853.2969 Q902.4063,853.75 901.1094,853.75 Q899.5938,853.75 898.3906,853.125 Q897.4063,852.625 896.7188,851.5625 Q896.0313,850.4844 896.0313,849.2031 L896.0313,848.0469 Q896.0313,846.7188 896.6406,845.5781 Q897.2656,844.4219 898.3594,843.8125 Q899.4531,843.1875 900.6875,843.1875 Q901.4219,843.1875 902.0625,843.3594 Q902.7188,843.5156 903.2656,843.875 Z " fill="#000000"/><text fill="#000000" font-family="sans-serif" font-size="14" lengthAdjust="spacing" textLength="127" x="914.5" y="853.7285">CoworkerRestriction</text><line style="stroke:#181818;stroke-width:0.5;" x1="886.5" x2="1043.5" y1="864" y2="864"/><line style="stroke:#181818;stroke-width:0.5;" x1="886.5" x2="1043.5" y1="872" y2="872"/></g><!--MD5=[4f7f6ee927026cd3deb11c531a3ab67a]
class PeriodLimitRestriction--><g id="elem_PeriodLimitRestriction"><rect codeLine="55" fill="#F1F1F1" height="48" id="PeriodLimitRestriction" rx="2.5" ry="2.5" style="stroke:#181818;stroke-width:0.5;" width="169" x="1079.5" y="832"/><ellipse cx="1094.5" cy="848" fill="#ADD1B2" rx="11" ry="11" style="stroke:#181818;stroke-width:1.0;"/><path d="M1097.2656,843.875 Q1097.4219,843.6563 1097.6094,843.5469 Q1097.7969,843.4375 1098.0156,843.4375 Q1098.3906,843.4375 1098.625,843.7031 Q1098.8594,843.9531 1098.8594,844.5625 L1098.8594,846.0156 Q1098.8594,846.625 1098.625,846.8906 Q1098.3906,847.1563 1098.0156,847.1563 Q1097.6719,847.1563 1097.4688,846.9531 Q1097.2656,846.7656 1097.1563,846.25 Q1097.1094,845.8906 1096.9219,845.7031 Q1096.5938,845.3281 1095.9844,845.1094 Q1095.375,844.8906 1094.75,844.8906 Q1093.9844,844.8906 1093.3438,845.2188 Q1092.7188,845.5469 1092.2188,846.2969 Q1091.7344,847.0469 1091.7344,848.0781 L1091.7344,849.1719 Q1091.7344,850.4063 1092.625,851.2344 Q1093.5156,852.0469 1095.1094,852.0469 Q1096.0469,852.0469 1096.7031,851.7969 Q1097.0938,851.6406 1097.5156,851.2031 Q1097.7813,850.9375 1097.9219,850.8594 Q1098.0781,850.7813 1098.2813,850.7813 Q1098.6094,850.7813 1098.8594,851.0469 Q1099.125,851.2969 1099.125,851.6406 Q1099.125,851.9844 1098.7813,852.3906 Q1098.2813,852.9688 1097.4844,853.2969 Q1096.4063,853.75 1095.1094,853.75 Q1093.5938,853.75 1092.3906,853.125 Q1091.4063,852.625 1090.7188,851.5625 Q1090.0313,850.4844 1090.0313,849.2031 L1090.0313,848.0469 Q1090.0313,846.7188 1090.6406,845.5781 Q1091.2656,844.4219 1092.3594,843.8125 Q1093.4531,843.1875 1094.6875,843.1875 Q1095.4219,843.1875 1096.0625,843.3594 Q1096.7188,843.5156 1097.2656,843.875 Z " fill="#000000"/><text fill="#000000" font-family="sans-serif" font-size="14" lengthAdjust="spacing" textLength="137" x="1108.5" y="853.7285">PeriodLimitRestriction</text><line style="stroke:#181818;stroke-width:0.5;" x1="1080.5" x2="1247.5" y1="864" y2="864"/><line style="stroke:#181818;stroke-width:0.5;" x1="1080.5" x2="1247.5" y1="872" y2="872"/></g><!--MD5=[e301ee17e218cdccb2148bb517fb1d1c]
reverse link Location to Designation--><g id="link_Location_Designation"><path codeLine="39" d="M597.92,77.91 C608.07,100.03 620.97,128.19 631.4,150.93 " fill="none" id="Location-backto-Designation" style="stroke:#181818;stroke-width:1.0;"/><polygon fill="#181818" points="595.8,73.29,595.92,83.1381,597.8862,77.834,603.1904,79.8002,595.8,73.29" style="stroke:#181818;stroke-width:1.0;"/><rect fill="none" height="6" style="stroke:#C82930;stroke-width:1.0;" width="6" x="621" y="109.6758"/><text fill="#000000" font-family="sans-serif" font-size="13" lengthAdjust="spacing" textLength="45" x="631" y="117.4951">location</text><text fill="#000000" font-family="sans-serif" font-size="13" lengthAdjust="spacing" textLength="7" x="590.8128" y="94.206">1</text><text fill="#000000" font-family="sans-serif" font-size="13" lengthAdjust="spacing" textLength="5" x="622.9053" y="140.2261">*</text></g><!--MD5=[8d39f7967e0c3319f487c49bb4c04fb4]
reverse link Position to Designation--><g id="link_Position_Designation"><path codeLine="40" d="M702.83,77.91 C692.54,100.03 679.45,128.19 668.87,150.93 " fill="none" id="Position-backto-Designation" style="stroke:#181818;stroke-width:1.0;"/><polygon fill="#181818" points="704.98,73.29,697.5482,79.7528,702.8648,77.8206,704.7971,83.1372,704.98,73.29" style="stroke:#181818;stroke-width:1.0;"/><rect fill="none" height="6" style="stroke:#C82930;stroke-width:1.0;" width="6" x="692" y="109.6758"/><text fill="#000000" font-family="sans-serif" font-size="13" lengthAdjust="spacing" textLength="45" x="702" y="117.4951">position</text><text fill="#000000" font-family="sans-serif" font-size="13" lengthAdjust="spacing" textLength="7" x="694.6811" y="94.206">1</text><text fill="#000000" font-family="sans-serif" font-size="13" lengthAdjust="spacing" textLength="5" x="666.5813" y="140.2261">*</text></g><!--MD5=[1505b15c32357bbf5cb21a3678e71ce7]
link Designation to Employee--><g id="link_Designation_Employee"><path codeLine="41" d="M679.38,245.41 C691.01,265.94 715.8718,309.8552 715.8718,309.8552 " fill="none" id="Designation-Employee" style="stroke:#181818;stroke-width:1.0;"/><polygon fill="none" points="721.78,320.3,722.3075,313.1082,715.8718,309.8552,715.3443,317.047,721.78,320.3" style="stroke:#181818;stroke-width:1.0;"/><polygon fill="#181818" points="672.94,234.03,673.8895,243.833,675.4017,238.382,680.8527,239.8942,672.94,234.03" style="stroke:#181818;stroke-width:1.0;"/><line style="stroke:#181818;stroke-width:1.0;" x1="675.4017" x2="679.35" y1="238.382" y2="245.35"/><rect fill="none" height="6" style="stroke:#C82930;stroke-width:1.0;" width="6" x="700" y="270.6758"/><text fill="#000000" font-family="sans-serif" font-size="13" lengthAdjust="spacing" textLength="73" x="710" y="278.4951">designations</text><text fill="#000000" font-family="sans-serif" font-size="13" lengthAdjust="spacing" textLength="5" x="671.3254" y="255.7395">*</text><text fill="#000000" font-family="sans-serif" font-size="13" lengthAdjust="spacing" textLength="7" x="710.5039" y="309.7569">1</text></g><!--MD5=[72363880b570d10855493e1aa24c7e6d]
link Employee to Employee--><g id="link_Employee_Employee"><path codeLine="42" d="M793.27,338.51 C812.4,338.19 828,343.19 828,353.5 C828,363.81 812.4,368.81 793.27,368.49 " fill="none" id="Employee-Employee" style="stroke:#181818;stroke-width:1.0;"/><text fill="#000000" font-family="sans-serif" font-size="13" lengthAdjust="spacing" textLength="69" x="770.0483" y="324.483">-employee *</text><text fill="#000000" font-family="sans-serif" font-size="13" lengthAdjust="spacing" textLength="63" x="776.2878" y="368.9359">-manager *</text></g><!--MD5=[5419ba989ef284a890e35e85de0e2331]
link Employee to Request--><g id="link_Employee_Request"><path codeLine="43" d="M737.8388,398.7695 C737.8388,398.7695 737.17,416.9 737,425 C736.76,436.24 736.77,448.1 736.94,459.77 " fill="none" id="Employee-Request" style="stroke:#181818;stroke-width:1.0;"/><polygon fill="#181818" points="737.18,472.81,741.011,463.7368,737.0865,467.8109,733.0124,463.8864,737.18,472.81" style="stroke:#181818;stroke-width:1.0;"/><line style="stroke:#181818;stroke-width:1.0;" x1="737.0865" x2="736.935" y1="467.8109" y2="459.815"/><polygon fill="#181818" points="738.34,386.78,734.0929,392.6077,737.8388,398.7695,742.0859,392.9418,738.34,386.78" style="stroke:#181818;stroke-width:1.0;"/><rect fill="none" height="6" style="stroke:#C82930;stroke-width:1.0;" width="6" x="740" y="431.6758"/><text fill="#000000" font-family="sans-serif" font-size="13" lengthAdjust="spacing" textLength="50" x="750" y="439.4951">requests</text><text fill="#000000" font-family="sans-serif" font-size="13" lengthAdjust="spacing" textLength="7" x="730.4209" y="407.6942">1</text><text fill="#000000" font-family="sans-serif" font-size="13" lengthAdjust="spacing" textLength="5" x="731.5981" y="461.9885">*</text></g><!--MD5=[53b734e25f2a712e6f236065c235f001]
link Employee to Grant--><g id="link_Employee_Grant"><path codeLine="44" d="M778.8026,395.4646 C778.8026,395.4646 797,415.59 805,425 C817.54,439.75 830.61,455.94 842.77,471.39 " fill="none" id="Employee-Grant" style="stroke:#181818;stroke-width:1.0;"/><polygon fill="#181818" points="851.03,481.94,848.6279,472.3886,847.9462,478.0042,842.3306,477.3226,851.03,481.94" style="stroke:#181818;stroke-width:1.0;"/><line style="stroke:#181818;stroke-width:1.0;" x1="847.9462" x2="843.02" y1="478.0042" y2="471.705"/><polygon fill="#181818" points="770.66,386.65,771.7931,393.7715,778.8026,395.4646,777.6695,388.3431,770.66,386.65" style="stroke:#181818;stroke-width:1.0;"/><rect fill="none" height="6" style="stroke:#C82930;stroke-width:1.0;" width="6" x="820" y="431.6758"/><text fill="#000000" font-family="sans-serif" font-size="13" lengthAdjust="spacing" textLength="36" x="830" y="439.4951">grants</text><text fill="#000000" font-family="sans-serif" font-size="13" lengthAdjust="spacing" textLength="7" x="768.4979" y="407.5411">1</text><text fill="#000000" font-family="sans-serif" font-size="13" lengthAdjust="spacing" textLength="5" x="840.3665" y="471.2569">*</text></g><!--MD5=[707028b114952c4b5650cbcafff76a27]
link Category to Grant--><g id="link_Category_Grant"><path codeLine="45" d="M912.17,395.21 C909.16,420.59 905.24,453.66 901.9,481.79 " fill="none" id="Category-Grant" style="stroke:#181818;stroke-width:1.0;"/><text fill="#000000" font-family="sans-serif" font-size="13" lengthAdjust="spacing" textLength="80" x="820.7065" y="416.6382">-category 0..1</text><text fill="#000000" font-family="sans-serif" font-size="13" lengthAdjust="spacing" textLength="42" x="858.1816" y="471.0887">-grant *</text></g><!--MD5=[303848b9198563716a0b86bc3281877a]
link Grant to Restriction--><g id="link_Grant_Restriction"><path codeLine="46" d="M840.17,595.11 C834.5,599.96 828.72,604.67 823,609 C787.77,635.65 745.77,661.49 711,681.48 " fill="none" id="Grant-Restriction" style="stroke:#181818;stroke-width:1.0;"/><text fill="#000000" font-family="sans-serif" font-size="13" lengthAdjust="spacing" textLength="44" x="805.4364" y="621.9115">-grant 1</text><text fill="#000000" font-family="sans-serif" font-size="13" lengthAdjust="spacing" textLength="70" x="719.0391" y="675.3952">-restriction *</text></g><!--MD5=[f77758cbe4d125c195bb63981f7f1e72]
link Restriction to Designation--><g id="link_Restriction_Designation"><path codeLine="48" d="M641.85,669.62 C643.63,566.08 647.67,329.56 649.3,234.34 " fill="none" id="Restriction-Designation" style="stroke:#181818;stroke-width:1.0;"/></g><!--MD5=[702109f0cdbecbcf816f3f23aaf2c6df]
reverse link Restriction to DateExclusionRestriction--><g id="link_Restriction_DateExclusionRestriction"><path codeLine="58" d="M551.44,743.64 C452.74,768.04 294.71,807.11 194.47,831.89 " fill="none" id="Restriction-backto-DateExclusionRestriction" style="stroke:#181818;stroke-width:1.0;"/><polygon fill="none" points="549.86,736.82,570.96,738.82,553.22,750.41,549.86,736.82" style="stroke:#181818;stroke-width:1.0;"/></g><!--MD5=[776662e5c71e9d74776ad7468075b85c]
reverse link Restriction to AdjacentDayRestriction--><g id="link_Restriction_AdjacentDayRestriction"><path codeLine="59" d="M552.39,758.35 C495.8,781.89 424.19,811.67 375.52,831.91 " fill="none" id="Restriction-backto-AdjacentDayRestriction" style="stroke:#181818;stroke-width:1.0;"/><polygon fill="none" points="549.8,751.85,570.95,750.63,555.17,764.78,549.8,751.85" style="stroke:#181818;stroke-width:1.0;"/></g><!--MD5=[584f316662302187266872bf5b38dbf3]
reverse link Restriction to DayofWeekRestriction--><g id="link_Restriction_DayofWeekRestriction"><path codeLine="60" d="M587.17,786.83 C573.88,802.95 560.51,819.19 550.14,831.77 " fill="none" id="Restriction-backto-DayofWeekRestriction" style="stroke:#181818;stroke-width:1.0;"/><polygon fill="none" points="581.92,782.19,600.04,771.21,592.72,791.1,581.92,782.19" style="stroke:#181818;stroke-width:1.0;"/></g><!--MD5=[2a507c76f221c1f6442c43399c736119]
reverse link Restriction to ConsecutiveDayRestricion--><g id="link_Restriction_ConsecutiveDayRestricion"><path codeLine="61" d="M694.83,786.83 C708.12,802.95 721.49,819.19 731.86,831.77 " fill="none" id="Restriction-backto-ConsecutiveDayRestricion" style="stroke:#181818;stroke-width:1.0;"/><polygon fill="none" points="689.28,791.1,681.96,771.21,700.08,782.19,689.28,791.1" style="stroke:#181818;stroke-width:1.0;"/></g><!--MD5=[92917643b51a49eaa69146b452bc15d7]
reverse link Restriction to CoworkerRestriction--><g id="link_Restriction_CoworkerRestriction"><path codeLine="62" d="M730.06,758.2 C787.28,781.77 859.85,811.67 909.08,831.96 " fill="none" id="Restriction-backto-CoworkerRestriction" style="stroke:#181818;stroke-width:1.0;"/><polygon fill="none" points="727.13,764.56,711.3,750.47,732.46,751.61,727.13,764.56" style="stroke:#181818;stroke-width:1.0;"/></g><!--MD5=[1a93e9e752a8a5cad41a18e54dcc316d]
reverse link Restriction to PeriodLimitRestriction--><g id="link_Restriction_PeriodLimitRestriction"><path codeLine="63" d="M730.91,744.45 C828.68,769.41 983.73,808.98 1079.37,833.4 " fill="none" id="Restriction-backto-PeriodLimitRestriction" style="stroke:#181818;stroke-width:1.0;"/><polygon fill="none" points="728.91,751.16,711.26,739.44,732.37,737.6,728.91,751.16" style="stroke:#181818;stroke-width:1.0;"/></g><!--MD5=[cfa2ef4967fa488249ea327e99704c00]
@startuml
class Location{
    - name:String
}
class Position{
    - name: String
}
class Designation{
    - startDate: Date
    - endDate: Date
}
class Employee{
    - name: String
}
class Request{
    - title:String
    - comments:String
    - hours: int 
    - dates: Date
    + validate()
}
class Grant{
    - hours: int
    - expires: Date 
    - active: Date 
    + request()
}
class Category{
    - name: String
    - description: String 
}
abstract class Restriction{
    - name: String 
    - description: String
    + validate()
}



Location "1" <- - "*" Designation : -location
Position "1" <- - "*" Designation : -position
Designation "*" <- -o "1" Employee : -designations
Employee  "-employee *" - - "-manager *" Employee
Employee "1" *- -> "*" Request : -requests
Employee "1" *- -> "*" Grant : -grants
Category "-category 0..1 " - - "-grant *" Grant
Grant  "-grant 1" - - "-restriction *" Restriction

Restriction - - Designation

class DateExclusionRestriction{}
class AdjacentDayRestriction
class DayofWeekRestriction
class ConsecutiveDayRestricion
class CoworkerRestriction
class PeriodLimitRestriction


Restriction <|- - DateExclusionRestriction
Restriction <|- - AdjacentDayRestriction
Restriction <|- - DayofWeekRestriction
Restriction <|- - ConsecutiveDayRestricion
Restriction <|- - CoworkerRestriction
Restriction <|- - PeriodLimitRestriction


@enduml

PlantUML version 1.2022.12(Sun Oct 23 13:12:26 ECT 2022)
(GPL source distribution)
Java Runtime: Java(TM) SE Runtime Environment
JVM: Java HotSpot(TM) 64-Bit Server VM
Default Encoding: UTF-8
Language: es
Country: EC
--></g></svg>