<?xml version="1.0" encoding="UTF-8" standalone="no"?><svg xmlns="http://www.w3.org/2000/svg" xmlns:xlink="http://www.w3.org/1999/xlink" contentStyleType="text/css" height="660px" preserveAspectRatio="none" style="width:499px;height:660px;background:#FFFFFF;" version="1.1" viewBox="0 0 499 660" width="499px" zoomAndPan="magnify"><defs/><g><!--MD5=[5df457076157e30ba1d3b61c0cbe32ea]
cluster VacationTrackingSystem--><g id="cluster_VacationTrackingSystem"><path d="M214.5,6 L385.5,6 A3.75,3.75 0 0 1 388,8.5 L395,29.6094 L489.5,29.6094 A2.5,2.5 0 0 1 492,32.1094 L492,650.5 A2.5,2.5 0 0 1 489.5,653 L214.5,653 A2.5,2.5 0 0 1 212,650.5 L212,8.5 A2.5,2.5 0 0 1 214.5,6 " fill="none" style="stroke:#000000;stroke-width:1.5;"/><line style="stroke:#000000;stroke-width:1.5;" x1="212" x2="395" y1="29.6094" y2="29.6094"/><text fill="#000000" font-family="sans-serif" font-size="14" font-weight="bold" lengthAdjust="spacing" textLength="170" x="216" y="22.5332">VacationTrackingSystem</text></g><g id="elem_ApproveRequest"><ellipse cx="352.2363" cy="60.2473" fill="#F1F1F1" rx="76.7363" ry="17.7473" style="stroke:#181818;stroke-width:0.5;"/><text fill="#000000" font-family="sans-serif" font-size="14" lengthAdjust="spacing" textLength="106" x="296.7006" y="64.6555">Aprobar solicitud</text></g><g id="elem_AwardTime"><ellipse cx="352.1887" cy="131.0377" fill="#F1F1F1" rx="80.6887" ry="18.5377" style="stroke:#181818;stroke-width:0.5;"/><text fill="#000000" font-family="sans-serif" font-size="14" lengthAdjust="spacing" textLength="116" x="293.5015" y="134.9661">Conceder permiso</text></g><g id="elem_ManageTime"><ellipse cx="352.0873" cy="204.1175" fill="#F1F1F1" rx="83.5873" ry="19.1175" style="stroke:#181818;stroke-width:0.5;"/><text fill="#000000" font-family="sans-serif" font-size="14" lengthAdjust="spacing" textLength="123" x="290.5873" y="207.846">Gestionar el tiempo</text></g><g id="elem_EditEmpolyeeRecord"><ellipse cx="351.8456" cy="282.1691" fill="#F1F1F1" rx="106.3456" ry="23.6691" style="stroke:#181818;stroke-width:0.5;"/><text fill="#000000" font-family="sans-serif" font-size="14" lengthAdjust="spacing" textLength="175" x="264.3456" y="285.8976">Editar registro de empleado</text></g><g id="elem_ManageLocations"><ellipse cx="351.8478" cy="359.8696" fill="#F1F1F1" rx="84.8478" ry="19.3696" style="stroke:#181818;stroke-width:0.5;"/><text fill="#000000" font-family="sans-serif" font-size="14" lengthAdjust="spacing" textLength="126" x="288.8478" y="363.5981">Gestionar ubicación</text></g><g id="elem_ManageLeaveCategories"><ellipse cx="351.8069" cy="442.1614" fill="#F1F1F1" rx="123.8069" ry="27.1614" style="stroke:#181818;stroke-width:0.5;"/><text fill="#000000" font-family="sans-serif" font-size="14" lengthAdjust="spacing" textLength="213" x="245.3069" y="445.8899">Gestionar categorías de permisos</text></g><g id="elem_OverrideLeaveRecords"><ellipse cx="352.2025" cy="530.1405" fill="#F1F1F1" rx="118.7025" ry="26.1405" style="stroke:#181818;stroke-width:0.5;"/><text fill="#000000" font-family="sans-serif" font-size="14" lengthAdjust="spacing" textLength="202" x="251.2025" y="533.869">Gestionar registros de permisos</text></g><g id="elem_BackUpSystemLogs"><ellipse cx="352.0894" cy="614.2179" fill="#F1F1F1" rx="104.0894" ry="23.2179" style="stroke:#181818;stroke-width:0.5;"/><text fill="#000000" font-family="sans-serif" font-size="14" lengthAdjust="spacing" textLength="170" x="267.0894" y="617.9464">Respaldar logs del sistema</text></g><!--MD5=[327d8b0cc9017ef0d2f4054fa6547e20]
entity Manager--><g id="elem_Manager"><ellipse cx="87" cy="45.5" fill="#F1F1F1" rx="8" ry="8" style="stroke:#181818;stroke-width:0.5;"/><path d="M87,53.5 L87,80.5 M74,61.5 L100,61.5 M87,80.5 L74,95.5 M87,80.5 L100,95.5 " fill="none" style="stroke:#181818;stroke-width:0.5;"/><text fill="#000000" font-family="sans-serif" font-size="14" lengthAdjust="spacing" textLength="52" x="61" y="111.5332">Gerente</text></g><!--MD5=[92fe6f5617480e17c620d2c2b5968e69]
entity Empolyee--><g id="elem_Empolyee"><ellipse cx="87" cy="173.5" fill="#F1F1F1" rx="8" ry="8" style="stroke:#181818;stroke-width:0.5;"/><path d="M87,181.5 L87,208.5 M74,189.5 L100,189.5 M87,208.5 L74,223.5 M87,208.5 L100,223.5 " fill="none" style="stroke:#181818;stroke-width:0.5;"/><text fill="#000000" font-family="sans-serif" font-size="14" lengthAdjust="spacing" textLength="63" x="55.5" y="239.5332">Empleado</text></g><!--MD5=[ad10bd0f11b7c9e4e0dadcc712d56f5d]
entity Clerk--><g id="elem_Clerk"><ellipse cx="87" cy="370.5" fill="#F1F1F1" rx="8" ry="8" style="stroke:#181818;stroke-width:0.5;"/><path d="M87,378.5 L87,405.5 M74,386.5 L100,386.5 M87,405.5 L74,420.5 M87,405.5 L100,420.5 " fill="none" style="stroke:#181818;stroke-width:0.5;"/><text fill="#000000" font-family="sans-serif" font-size="14" lengthAdjust="spacing" textLength="78" x="48" y="436.5332">Personal TH</text></g><!--MD5=[f37fce11f5a574fb9ee6b16d659d5448]
entity SystemAdmin--><g id="elem_SystemAdmin"><ellipse cx="87" cy="583.5" fill="#F1F1F1" rx="8" ry="8" style="stroke:#181818;stroke-width:0.5;"/><path d="M87,591.5 L87,618.5 M74,599.5 L100,599.5 M87,618.5 L74,633.5 M87,618.5 L100,633.5 " fill="none" style="stroke:#181818;stroke-width:0.5;"/><text fill="#000000" font-family="sans-serif" font-size="14" lengthAdjust="spacing" textLength="162" x="6" y="649.5332">Administrador del sistema</text></g><!--MD5=[0c519cbf72843630398203905724eccc]
link Manager to ApproveRequest--><g id="link_Manager_ApproveRequest"><path d="M113.22,74.47 C149.59,72.25 218.35,68.07 272.61,64.77 " fill="none" id="Manager-to-ApproveRequest" style="stroke:#181818;stroke-width:1.0;"/><polygon fill="#181818" points="277.82,64.45,268.596,60.9978,272.829,64.7503,269.0765,68.9833,277.82,64.45" style="stroke:#181818;stroke-width:1.0;"/></g><!--MD5=[3be91e402e2fd1bc4d2d92f1c29c535c]
link Manager to AwardTime--><g id="link_Manager_AwardTime"><path d="M113.22,81.27 C152.84,89.56 230.92,105.89 286.8,117.57 " fill="none" id="Manager-to-AwardTime" style="stroke:#181818;stroke-width:1.0;"/><polygon fill="#181818" points="291.8,118.62,283.7976,112.8787,286.9038,117.6065,282.176,120.7127,291.8,118.62" style="stroke:#181818;stroke-width:1.0;"/></g><!--MD5=[bf7b0427e8a53a83b20655f41d9566f8]
link Empolyee to ManageTime--><g id="link_Empolyee_ManageTime"><path d="M118.68,204 C153.92,204 213.3,204 263.21,204 " fill="none" id="Empolyee-to-ManageTime" style="stroke:#181818;stroke-width:1.0;"/><polygon fill="#181818" points="268.31,204,259.31,200,263.31,204,259.31,208,268.31,204" style="stroke:#181818;stroke-width:1.0;"/></g><!--MD5=[d4ac87961a54469621b53408a239f3f4]
link Clerk to EditEmpolyeeRecord--><g id="link_Clerk_EditEmpolyeeRecord"><path d="M126.14,370.8 C147.92,354.75 176.34,335.75 204,323 C224.69,313.46 248.07,305.7 269.99,299.61 " fill="none" id="Clerk-to-EditEmpolyeeRecord" style="stroke:#181818;stroke-width:1.0;"/><polygon fill="#181818" points="274.94,298.25,265.2043,296.7614,270.1165,299.5668,267.3112,304.479,274.94,298.25" style="stroke:#181818;stroke-width:1.0;"/></g><!--MD5=[df9ccf10648d8d07fd16a0635082af78]
link Clerk to ManageLocations--><g id="link_Clerk_ManageLocations"><path d="M126.24,395.04 C165.43,388.93 227.38,379.27 276.32,371.64 " fill="none" id="Clerk-to-ManageLocations" style="stroke:#181818;stroke-width:1.0;"/><polygon fill="#181818" points="281.32,370.86,271.8108,368.2957,276.3798,371.631,273.0445,376.2,281.32,370.86" style="stroke:#181818;stroke-width:1.0;"/></g><!--MD5=[69aeb67c8455d4f5b5f7dab077a94cbe]
link Clerk to ManageLeaveCategories--><g id="link_Clerk_ManageLeaveCategories"><path d="M126.24,406.96 C157.59,411.85 203.51,419.01 245.69,425.58 " fill="none" id="Clerk-to-ManageLeaveCategories" style="stroke:#181818;stroke-width:1.0;"/><polygon fill="#181818" points="250.81,426.38,242.5345,421.04,245.8698,425.609,241.3008,428.9443,250.81,426.38" style="stroke:#181818;stroke-width:1.0;"/></g><!--MD5=[bc90ff606681e77abe74fc44a7292252]
link Clerk to OverrideLeaveRecords--><g id="link_Clerk_OverrideLeaveRecords"><path d="M126.09,434.07 C147.75,451.51 176.06,472.1 204,486 C223.1,495.5 244.64,503.36 265.21,509.68 " fill="none" id="Clerk-to-OverrideLeaveRecords" style="stroke:#181818;stroke-width:1.0;"/><polygon fill="#181818" points="270.14,511.17,262.6777,504.7423,265.3528,509.7267,260.3685,512.4018,270.14,511.17" style="stroke:#181818;stroke-width:1.0;"/></g><!--MD5=[023fd91872f6e13a31a63a706080c22e]
link SystemAdmin to BackUpSystemLogs--><g id="link_SystemAdmin_BackUpSystemLogs"><path d="M168.34,614 C191.75,614 217.72,614 242.56,614 " fill="none" id="SystemAdmin-to-BackUpSystemLogs" style="stroke:#181818;stroke-width:1.0;"/><polygon fill="#181818" points="247.85,614,238.85,610,242.85,614,238.85,618,247.85,614" style="stroke:#181818;stroke-width:1.0;"/></g><!--MD5=[8a2bb4100cbffe9abf9092d12e3e7601]
@startuml
left to right direction
actor Gerente as Manager
actor Empleado  as Empolyee
actor "Personal TH" as Clerk 
actor "Administrador del sistema" as SystemAdmin
package VacationTrackingSystem{
usecase ApproveRequest as "Aprobar solicitud"
usecase AwardTime as "Conceder permiso"
usecase ManageTime as "Gestionar el tiempo"
usecase EditEmpolyeeRecord as "Editar registro de empleado"
usecase ManageLocations as "Gestionar ubicación"
usecase ManageLeaveCategories as "Gestionar categorías de permisos"
usecase OverrideLeaveRecords as "Gestionar registros de permisos"
usecase BackUpSystemLogs as "Respaldar logs del sistema"
}
Manager - -> ApproveRequest
Manager - -> AwardTime

Empolyee - -> ManageTime

Clerk - -> EditEmpolyeeRecord
Clerk - -> ManageLocations
Clerk - -> ManageLeaveCategories
Clerk - -> OverrideLeaveRecords

SystemAdmin - -> BackUpSystemLogs


@enduml

PlantUML version 1.2022.12(Sun Oct 23 13:12:26 ECT 2022)
(GPL source distribution)
Java Runtime: Java(TM) SE Runtime Environment
JVM: Java HotSpot(TM) 64-Bit Server VM
Default Encoding: UTF-8
Language: es
Country: EC
--></g></svg>